PathFileType	4	(X/Y/Z)	../Python\walking\Walking05\task.trc
DataRate	CameraRate	NumFrames	NumMarkers	Units	OrigDataRate	OrigDataStartFrame	OrigNumFrames
200.000000	200.000000	7	30	mm	200.000000	453	605
Frame#	Time	C7			RBAK			CLAV			STRN			T10			RASI			RPSI			LPSI			LASI			PE01			PE02			PE03			RTH1			RTH2			RTH3			RTB1			RTB2			RTB3			RHEE			RD5M			RTOE			LTH1			LTH2			LTH3			LTB1			LTB2			LTB3			LHEE			LTOE			LD5M			
		X1	Y1	Z1	X2	Y2	Z2	X3	Y3	Z3	X4	Y4	Z4	X5	Y5	Z5	X6	Y6	Z6	X7	Y7	Z7	X8	Y8	Z8	X9	Y9	Z9	X10	Y10	Z10	X11	Y11	Z11	X12	Y12	Z12	X13	Y13	Z13	X14	Y14	Z14	X15	Y15	Z15	X16	Y16	Z16	X17	Y17	Z17	X18	Y18	Z18	X19	Y19	Z19	X20	Y20	Z20	X21	Y21	Z21	X22	Y22	Z22	X23	Y23	Z23	X24	Y24	Z24	X25	Y25	Z25	X26	Y26	Z26	X27	Y27	Z27	X28	Y28	Z28	X29	Y29	Z29	X30	Y30	Z30	

454	2.265	1830.852905273438	1512.970336914063	207.2459106445314	1792.250122070313	1427.998046875	371.2283935546876	1940.504028320313	1417.84912109375	224.0591278076173	1986.393676757813	1224.486938476563	232.2518615722657	1764.119018554688	1259.855712890625	204.4539184570314	1961.424438476563	1018.040100097657	365.543914794922	1800.968383789063	1060.29150390625	282.5951232910157	1797.295532226563	1063.980834960938	182.9624481201172	1970.482543945313	1010.89501953125	89.39173889160159	1806.889648437501	1108.699096679688	233.4971313476564	1795.376098632813	1048.690307617188	259.7466125488282	1791.821655273438	1049.471557617188	208.8154144287111	1996.937133789063	773.7515258789067	417.9075927734377	1957.680664062501	728.1865844726565	402.3300476074221	1996.397094726563	696.8468017578127	397.0135192871096	2140.144775390626	394.4284362792971	365.1504821777345	2109.636230468751	341.0210266113282	367.914276123047	2151.617675781251	316.098358154297	361.2604980468751	2141.018066406251	26.97279930114748	288.7674255371095	2296.020263671876	50.68844985961917	367.0755920410157	2337.052246093751	86.38511657714847	333.0047912597657	1830.518798828126	718.9397583007815	61.31349945068362	1792.852416992188	688.8328247070315	74.55850982666018	1832.855712890626	642.380554199219	82.27182769775393	1713.262084960938	368.8628845214845	110.2572555541993	1675.218139648438	338.5403442382814	121.7241210937501	1715.573486328126	291.6007080078126	126.2712783813477	1580.508178710938	64.20095825195315	208.8365325927736	1794.274291992188	31.348934173584	208.4426574707032	1746.790893554688	21.20757675170899	157.213119506836	
455	2.27	1837.373779296876	1512.076049804688	207.4623260498048	1798.623779296876	1427.188232421875	371.325164794922	1947.004638671876	1416.896362304688	224.3244171142579	1992.747558593751	1223.485717773438	232.5472412109376	1770.438598632813	1259.030029296875	204.6291503906251	1968.269775390626	1017.070678710938	365.8790588378907	1807.502929687501	1059.327392578125	283.4353637695314	1803.499389648438	1063.033447265625	183.833236694336	1976.454345703126	1010.070190429688	89.44614410400393	1813.175659179688	1107.758911132813	234.3237609863282	1801.854736328126	1047.722290039063	260.603485107422	1798.151000976563	1048.505126953125	209.6810302734376	2001.826904296876	771.645629882813	418.5103759765627	1962.337646484376	726.4383544921877	402.1820983886721	2000.866821289063	694.7773437500002	397.2719726562502	2148.778564453126	394.0391845703127	365.4434204101564	2119.671386718751	339.8909301757814	368.3175659179689	2162.195556640626	316.0599365234376	361.4692993164064	2158.583251953126	26.79586982727052	288.8727111816407	2313.639648437501	53.77071380615237	366.0937500000001	2353.584472656251	90.5195236206055	331.7650756835939	1835.227539062501	718.7139282226565	61.42258071899417	1797.456298828126	688.7989501953127	74.80721282958987	1837.220092773438	642.1223754882815	82.33016204833987	1715.886108398438	369.3843688964845	110.4063339233399	1677.616577148438	339.3282775878907	121.8725662231446	1717.622680664063	292.0865478515626	126.3580169677735	1580.855102539063	65.6220397949219	208.8690490722657	1794.311279296876	31.33488273620607	208.4145507812501	1746.782836914063	21.29586410522462	157.3026275634766	
456	2.275	1843.907592773438	1511.16552734375	207.6937561035157	1805.030883789063	1426.3564453125	371.444549560547	1953.530029296876	1415.935546875	224.5987091064454	1999.145263671876	1222.474731445313	232.8416900634767	1776.794555664063	1258.1767578125	204.8285369873048	1975.167846679688	1016.0771484375	366.217010498047	1814.087768554688	1058.34326171875	284.2862548828126	1809.753784179688	1062.056640625	184.7135009765626	1982.481445312501	1009.227111816407	89.4971618652344	1819.514038085938	1106.794677734375	235.1580810546876	1808.384643554688	1046.731689453125	261.4716796875001	1804.531250000001	1047.513427734375	210.5559082031251	2006.742065429688	769.5294799804692	419.128356933594	1967.021118164063	724.692077636719	402.0345764160159	2005.349975585938	692.7078247070315	397.5180664062502	2157.247070312501	393.6445617675784	365.7228088378907	2129.508544921876	338.8153076171876	368.7041320800782	2172.532958984376	316.0495605468751	361.6497497558595	2175.603759765626	26.784481048584	288.8755187988282	2330.615722656251	56.9151420593262	365.1202697753907	2369.506103515626	94.65888977050784	330.5573120117189	1839.949829101563	718.506774902344	61.51626586914065	1802.075439453126	688.7885742187502	75.06048583984378	1841.589355468751	641.8814086914065	82.35982513427737	1718.552856445313	369.9245605468751	110.5365142822266	1680.059692382813	340.1360168457032	122.0013275146485	1719.715820312501	292.5947570800782	126.4252243041993	1581.230834960938	67.0986251831055	208.8664703369142	1794.349487304688	31.31913948059083	208.3844604492189	1746.779174804688	21.37681770324708	157.3873138427735	
457	2.28	1850.453979492188	1510.241455078125	207.9407501220704	1811.472290039063	1425.503784179688	371.5870971679689	1960.081054687501	1414.9697265625	224.8822784423829	2005.589477539063	1221.457397460938	233.1356353759767	1783.189819335938	1257.296875	205.0520019531251	1982.117187500001	1015.065307617188	366.5596618652345	1820.723999023438	1057.342041015625	285.1420288085939	1816.063598632813	1061.05322265625	185.5971984863282	1988.570190429688	1008.364685058594	89.54812622070315	1825.909301757813	1105.80908203125	235.9943695068361	1814.968139648438	1045.7216796875	262.3457031250001	1810.965942382813	1046.499145507813	211.434295654297	2011.712524414063	767.429870605469	419.7622985839846	1971.766479492188	722.970642089844	401.8980407714846	2009.885375976563	690.667663574219	397.7548828125002	2165.546386718751	393.2370910644534	365.9898681640626	2139.131347656251	337.7868041992189	369.0690002441407	2182.614013671876	316.0513000488282	361.8037109375001	2192.034423828126	26.90061378479005	288.7683105468751	2346.907714843751	60.06512451171878	364.1644287109376	2384.787109375001	98.7500839233399	329.3957519531251	1844.686279296876	718.321716308594	61.59885406494143	1806.709838867188	688.8054199218752	75.32414245605472	1845.962890625001	641.6606445312502	82.36185455322268	1721.262329101563	370.4842834472657	110.6470031738282	1682.547973632813	340.9646911621095	122.110466003418	1721.853637695313	293.1263122558595	126.4711151123047	1581.637573242188	68.63228607177737	208.8251190185548	1794.388916015626	31.30136108398439	208.3521270751954	1746.780273437501	21.44940757751466	157.4655151367188	
458	2.285	1857.013061523438	1509.306030273438	208.2037200927736	1817.948242187501	1424.631591796875	371.7532958984376	1966.658203125001	1414.001953125	225.1754455566407	2012.083007812501	1220.43701171875	233.4297027587892	1789.627563476563	1256.3916015625	205.2992706298829	1989.116699218751	1014.041137695313	366.9089355468751	1827.412597656251	1056.3271484375	285.997039794922	1822.433471679688	1060.025634765625	186.4784851074219	1994.727172851563	1007.481872558594	89.60227203369143	1832.365844726563	1104.805053710938	236.8270416259767	1821.607299804688	1044.695678710938	263.220184326172	1817.458251953126	1045.465698242188	212.3105926513673	2016.768554687501	765.372741699219	420.4125976562502	1976.608886718751	721.2954711914065	401.7827453613284	2014.512084960938	688.6851196289065	397.986267089844	2173.672851562501	392.8078918457034	366.2459106445314	2148.522460937501	336.7965698242189	369.4064941406251	2192.422363281251	316.0469055175782	361.9331054687501	2207.828857421876	27.10415840148927	288.5454101562501	2362.476318359376	63.16004562377933	363.2356872558595	2399.397460937501	102.7360000610352	328.2953186035157	1849.439575195313	718.161071777344	61.67573165893558	1811.362548828126	688.851501464844	75.60378265380862	1850.343750000001	641.4621582031252	82.33863067626956	1724.016113281251	371.0640869140626	110.7376403808594	1685.082763671876	341.8151245117189	122.2004089355469	1724.037353515626	293.6818237304689	126.4948043823243	1582.077636718751	70.22466278076175	208.7417144775392	1794.429443359376	31.28125381469728	208.3174438476564	1746.786621093751	21.51296424865723	157.5356750488282	
459	2.29	1863.584716796876	1508.361938476563	208.4830474853517	1824.459106445313	1423.741088867188	371.9435424804689	1973.262084960938	1413.03564453125	225.4785766601564	2018.628662109376	1219.417236328125	233.7247009277345	1796.110717773438	1255.462280273438	205.5699157714845	1996.165527343751	1013.010803222657	367.2666320800782	1834.155273437501	1055.30224609375	286.8458251953126	1828.868286132813	1058.977294921875	187.3517456054688	2000.958618164063	1006.577941894532	89.66271972656253	1838.888061523438	1103.785888671875	237.6507263183595	1828.304931640626	1043.657592773438	264.0899047851564	1824.011840820313	1044.41650390625	213.1794738769532	2021.939575195313	763.382751464844	421.0789489746096	1981.582885742188	719.6864013671877	401.6981201171877	2019.269653320313	686.7864990234377	398.2166442871096	2181.623291015626	392.3470153808596	366.4920349121095	2157.664794921876	335.8343811035157	369.7105102539064	2201.941162109376	316.0164184570314	362.0399475097657	2222.939941406251	27.35372352600099	288.2034912109376	2377.282714843751	66.13651275634768	362.3436889648439	2413.307617187501	106.5563964843751	327.2713317871095	1854.215576171876	718.0260009765627	61.7530326843262	1816.039428710938	688.9270019531252	75.90443420410159	1854.738281250001	641.2866821289065	82.29398345947268	1726.817260742188	371.6639709472657	110.808952331543	1687.667114257813	342.6879272460939	122.2719497680665	1726.269287109376	294.2614135742189	126.4963684082032	1582.553833007813	71.87757873535159	208.613494873047	1794.471435546876	31.25860404968263	208.280487060547	1746.799072265626	21.56719779968262	157.5964660644532	
460	2.295	1870.168823242188	1507.412109375	208.7790374755861	1831.005126953126	1422.833862304688	372.157928466797	1979.893432617188	1412.074340820313	225.7920227050782	2025.229370117188	1218.401977539063	234.0216522216798	1802.642211914063	1254.510620117188	205.8632965087892	2003.263549804688	1011.980590820313	367.6344604492189	1840.953735351563	1054.271118164063	287.6834106445314	1835.373046875001	1057.91162109375	188.2118072509766	2007.270751953126	1005.652282714844	89.73238372802737	1845.480346679688	1102.755249023438	238.4603729248048	1835.063354492188	1042.611450195313	264.9499816894532	1830.630493164063	1043.35546875	214.0359497070314	2027.254028320313	761.4824829101565	421.7604675292971	1986.721191406251	718.160583496094	401.6527404785159	2024.196044921876	684.9949340820315	398.4508361816409	2189.395019531251	391.8436279296877	366.7290954589845	2166.541503906251	334.8890686035157	369.9747619628907	2211.154785156251	315.938690185547	362.1260681152345	2237.321289062501	27.60759353637697	287.7424316406251	2391.290039062501	68.92985534667972	361.4980773925782	2426.489990234376	110.1488723754883	326.3391723632814	1859.022338867188	717.9158935546877	61.83728408813479	1820.748901367188	689.0305786132815	76.23023986816409	1859.155761718751	641.1337890625002	82.23310852050784	1729.670043945313	372.2837829589845	110.862174987793	1690.304931640626	343.5835266113282	122.3262405395508	1728.552612304688	294.8651123046876	126.4769439697266	1583.069335937501	73.59309387207034	208.4385070800782	1794.515014648438	31.2333335876465	208.2414550781251	1746.818359375001	21.61217117309571	157.6468963623047	
